<svg width="276" height="280" fill="none" xmlns="http://www.w3.org/2000/svg"><g clip-path="url(#prefix__clip0_3076_2525)"><path d="M244.892 193.458h17.481v-7.387h-17.481v7.387zM254.649 202.773l8.813-.185 4.344-.073c1.446-.033 2.885 0 4.325-.039l-.298.297v-7.387l.331.33-8.741-.04c-2.912 0-5.829-.079-8.741-.112l.178-.178c0 1.208-.052 2.422-.085 3.65l-.126 3.737zm0 0l-.119-3.624c-.033-1.228-.079-2.476-.086-3.73v-.232h.185c2.912-.039 5.83-.105 8.741-.112l8.741-.039h.33v.33l-.04 7.387v.297h-.29c-1.472 0-2.951 0-4.423-.033l-4.397-.072-8.642-.172zM125.889 130.213l8.82-.185 4.337-.072c1.446-.033 2.885 0 4.324-.033l-.297.29-.033-7.387.33.33-8.741-.04c-2.911 0-5.829-.072-8.74-.112l.178-.178c0 1.208-.053 2.423-.086 3.657l-.092 3.73zm0 0l-.093-3.651c-.033-1.234-.072-2.482-.086-3.736v-.179h.185c2.912-.033 5.83-.105 8.741-.112l8.741-.039h.33v.33l-.033 7.387v.277h-.291c-1.472 0-2.951 0-4.416-.039l-4.404-.073-8.674-.165zM135.639 139.528h17.482v-7.387h-17.482v7.387zM115.986 139.528l8.82-.185 4.344-.072c1.446-.033 2.878 0 4.318-.033l-.291.29-.04-7.387.331.33-8.741-.04c-2.912 0-5.823-.073-8.741-.112l.185-.178c0 1.208-.059 2.422-.086 3.657l-.099 3.73zm0 0l-.092-3.657c0-1.228-.073-2.476-.086-3.73v-.179h.178c2.918 0 5.829-.105 8.741-.112l8.741-.039h.336v.33l-.033 7.387v.297h-.297c-1.472 0-2.951 0-4.416-.04l-4.397-.072-8.675-.185zM152.804 45.961h17.481v-7.387h-17.481v7.387zM3.228 202.773l8.82-.185 4.344-.073c1.44-.033 2.878 0 4.317-.039l-.29.297-.04-7.387.33.33-8.74-.04c-2.912 0-5.83-.079-8.74-.112l.177-.178c0 1.208-.053 2.422-.086 3.65l-.092 3.737zm0 0l-.092-3.624c-.033-1.228-.073-2.476-.086-3.73v-.232h.178c2.911-.039 5.83-.105 8.74-.112l8.741-.039h.33v8.014h-.297c-1.472 0-2.95 0-4.416-.033l-4.397-.072-8.701-.172zM12.98 15.752l8.82-.185 4.343-.072c1.446-.033 2.878 0 4.317-.04l-.29.297-.04-7.394.33.33-8.74-.04c-2.912 0-5.823-.079-8.74-.112l.184-.178c0 1.208-.06 2.423-.092 3.657l-.093 3.737zm0 0l-.074-3.657c0-1.228-.072-2.476-.085-3.73v-.178h.178c2.918-.034 5.83-.106 8.74-.113l8.741-.04h.337v.324l-.086 7.394v.297h-.297c-1.472 0-2.95 0-4.416-.04l-4.397-.072-8.642-.185zM3.228 25.067H20.71V17.68H3.228v7.387zM254.649 15.752l8.813-.185 4.344-.072c1.446-.033 2.885 0 4.325-.04l-.298.297V8.365l.331.33-8.741-.04c-2.912 0-5.829-.079-8.741-.112l.178-.178c0 1.208-.052 2.423-.085 3.657l-.126 3.73zm0 0l-.119-3.657c-.033-1.228-.079-2.476-.086-3.73v-.178h.185c2.912-.034 5.83-.106 8.741-.113l8.741-.04h.33v.324l-.02 7.394v.297h-.29c-1.473 0-2.951 0-4.424-.04l-4.396-.072-8.662-.185zM84.384 226.724h-47.5v52.596h47.5v-52.596z" fill="#EBEBEB"/><path d="M12.365 279.327H36.89v-52.603H12.365v52.603z" fill="#DBDBDB"/><path d="M14.048 275.729c1.822-3.741 3.623-7.482 5.4-11.223l5.341-11.375 5.282-11.362a700.156 700.156 0 005.175-11.421 1058.19 1058.19 0 00-5.4 11.256l-5.32 11.316-5.282 11.361a893.693 893.693 0 00-5.196 11.448z" fill="#EBEBEB"/><path d="M14.048 230.348c1.708 3.825 3.433 7.632 5.176 11.421l5.282 11.362 5.32 11.315a1019.71 1019.71 0 005.4 11.223c-1.707-3.82-3.432-7.627-5.175-11.421l-5.281-11.362-5.321-11.315a1630.143 1630.143 0 00-5.4-11.223zM84.384 147.285h-47.5v48.972h47.5v-48.972z" fill="#EBEBEB"/><path d="M12.365 196.264H36.89v-48.979H12.365v48.979zM56.604 158.653h1.763l.428-.871.608.871.818-1.802.78 1.802h3.234l.37-1.201.343 1.201h.66v-11.368h-9.004v11.368z" fill="#DBDBDB"/><path d="M14.048 193.141a783.917 783.917 0 005.4-10.497l5.322-10.562 5.281-10.563a550.353 550.353 0 005.176-10.636 990.338 990.338 0 00-5.4 10.484l-5.322 10.53-5.28 10.562a1503.292 1503.292 0 00-5.177 10.682z" fill="#EBEBEB"/><path d="M14.048 150.91c1.708 3.551 3.433 7.088 5.176 10.609l5.282 10.562 5.32 10.563a835.705 835.705 0 005.4 10.484 1141.956 1141.956 0 00-5.175-10.636L24.77 171.93l-5.321-10.53a1109.453 1109.453 0 00-5.4-10.49z" fill="#EBEBEB"/><path d="M40.013 193.22h5.275v-5.275h-5.275v5.275z" fill="#fff"/><path d="M81.221 196.264h-47.5v30.46h47.5v-30.46z" fill="#DBDBDB"/><path d="M9.196 226.724h24.526v-30.46H9.196v30.46z" fill="#C7C7C7"/><path d="M53.441 207.632H55.197l.436-.878.6.878.826-1.802.772 1.802h3.242l.363-1.202.35 1.202h.66v-11.368H53.44v11.368z" fill="#fff"/><path d="M10.886 224.895c1.818-2.2 3.618-4.421 5.4-6.661l5.322-6.694 5.281-6.727a870.738 870.738 0 005.17-6.76 536.374 536.374 0 00-5.401 6.661l-5.321 6.701-5.282 6.72a1270.48 1270.48 0 00-5.169 6.76z" fill="#DBDBDB"/><path d="M10.886 198.072a757.332 757.332 0 005.176 6.76l5.281 6.728 5.322 6.694a340.045 340.045 0 005.387 6.641 578.835 578.835 0 00-5.17-6.76l-5.281-6.721-5.321-6.7a952.46 952.46 0 00-5.394-6.642zM266.163 233.312h-47.5v46.015h47.5v-46.015z" fill="#DBDBDB"/><path d="M194.138 279.327h24.525v-46.015h-24.525v46.015z" fill="#C7C7C7"/><path d="M238.382 244.681h1.763l.429-.878.601.878.825-1.803.779 1.803h3.235l.363-1.202.35 1.202h.66v-11.369h-9.005v11.369z" fill="#fff"/><path d="M195.828 276.587c1.817-3.341 3.617-6.694 5.4-10.061l5.321-10.114 5.281-10.153a578.083 578.083 0 005.169-10.207 1234.54 1234.54 0 00-5.4 10.061l-5.321 10.108-5.248 10.16a1806.663 1806.663 0 00-5.202 10.206z" fill="#DBDBDB"/><path d="M195.828 236.052c1.712 3.411 3.437 6.813 5.175 10.207l5.249 10.153 5.321 10.114a987.412 987.412 0 005.4 10.061 919.794 919.794 0 00-5.169-10.206l-5.282-10.16-5.321-10.108a735.013 735.013 0 00-5.373-10.061z" fill="#DBDBDB"/><path d="M183.575 5.717v112.296h77.28V5.717h-77.28zm74.428 109.411h-71.576V8.536h71.576v106.592z" fill="#EBEBEB"/><path d="M257.996 8.536H186.42v106.592h71.576V8.536z" fill="#fff"/><path d="M186.427 66.56h71.576v-2.853h-71.576v2.852z" fill="#EBEBEB"/><path d="M178.32 126.16h87.783v-8.186H178.32v8.186z" fill="#DBDBDB"/><path d="M180.65 129.434l83.129 1.743v-5.017H180.65v3.274z" fill="#EBEBEB"/><path d="M186.427 8.536h71.576V81.77h-71.576V8.536zm68.935 2.64h-66.295V79.13h66.295V11.177z" fill="#DBDBDB"/><path d="M235.161 8.536h-1.426V79.13h1.426V8.536zM210.695 8.536h-1.426V79.13h1.426V8.536z" fill="#DBDBDB"/><path d="M14.504 5.717v112.296h77.28V5.717h-77.28zm74.428 109.411H17.356V8.536h71.576v106.592z" fill="#EBEBEB"/><path d="M88.932 8.536H17.356v106.592h71.576V8.536z" fill="#fff"/><path d="M17.356 66.56h71.576v-2.853H17.356v2.852z" fill="#EBEBEB"/><path d="M9.249 126.16h87.783v-8.186H9.25v8.186z" fill="#DBDBDB"/><path d="M11.58 129.434l83.129 1.743v-5.017h-83.13v3.274z" fill="#EBEBEB"/><path d="M17.356 8.536h71.576V81.77H17.356V8.536zm68.935 2.64H19.997V79.13H86.29V11.177z" fill="#DBDBDB"/><path d="M66.09 8.536h-1.426V79.13h1.426V8.536zM41.624 8.536h-1.426V79.13h1.426V8.536z" fill="#DBDBDB"/><path d="M0 279.327l34.422-.159 34.414-.059 68.843-.112 68.837.112 34.421.053 34.422.165-34.422.158-34.421.06-68.837.112-68.843-.112-34.414-.06L0 279.327z" fill="#263238"/><path d="M162.918 91.157c.376.23.753.462 1.122.706" stroke="#263238" stroke-width=".495" stroke-miterlimit="10"/><path d="M166.239 93.388c11.942 8.833 21.237 24.895 10.833 40.594-6.133 9.243-16.504 5.434-20.109 2.126-3.961-3.664-.317-7.407 3.638-4.905 6.852 4.344 7.816 14.392.224 21.786-4.945 4.845-11.381 5.143-14.926 4.859" stroke="#263238" stroke-width=".495" stroke-miterlimit="10" stroke-dasharray="2.68 2.68"/><path d="M144.572 157.735c-.819-.112-1.321-.231-1.321-.231" stroke="#263238" stroke-width=".495" stroke-miterlimit="10"/><path d="M137.878 156.996c-.311 2.641 5.083 4.119 5.492.66.41-3.459-5.182-3.321-5.492-.66z" fill="#263238"/><path d="M144.941 161.367c-.501.996-2.277 1.135-4.112-.146a12.288 12.288 0 01-3.103-3.479 12.222 12.222 0 014.621.403c2.172.733 3.123 2.211 2.594 3.222z" fill="#EBEBEB"/><path d="M137.745 157.742c1.043.469 2.067.977 3.09 1.479a66.168 66.168 0 013.03 1.591c-1.043-.469-2.066-.977-3.089-1.479a65.685 65.685 0 01-3.031-1.591z" fill="#263238"/><path d="M142.538 161.346a9.085 9.085 0 01-.66-.864 8.81 8.81 0 01-.541-.931c.237.275.457.563.66.865.201.298.382.609.541.93zM140.32 159.03c.363-.095.731-.17 1.103-.225.374-.053.751-.086 1.129-.099-.732.182-1.479.291-2.232.324zM139.746 159.465a2.468 2.468 0 01-.475-.964c.227.283.389.612.475.964z" fill="#263238"/><path d="M145.813 154.454c-.258-1.089-1.948-1.63-4.027-.812a12.312 12.312 0 00-3.829 2.674c1.483.514 3.052.738 4.621.66 2.225-.185 3.499-1.399 3.235-2.522z" fill="#EBEBEB"/><path d="M137.957 156.316c1.122-.211 2.238-.475 3.347-.733a65.56 65.56 0 003.3-.845c-1.115.212-2.231.476-3.34.733a74.527 74.527 0 00-3.307.845z" fill="#263238"/><path d="M143.456 153.913a9.35 9.35 0 00-.825.66c-.262.247-.511.507-.746.779.29-.2.566-.421.825-.66.264-.245.513-.505.746-.779zM140.749 155.656c.669.348 1.373.624 2.1.825a10.298 10.298 0 00-2.1-.825zM140.32 155.101a2.31 2.31 0 00-.686.825c.144-.11.274-.236.389-.376.12-.135.22-.286.297-.449z" fill="#263238"/><path d="M137.877 156.996a.964.964 0 11-1.069.852.97.97 0 011.069-.852z" fill="#455A64"/><path d="M138.102 155.075a.97.97 0 01.818.697.955.955 0 01-.086.735.976.976 0 01-.58.459.966.966 0 11-.152-1.891z" fill="#455A64"/><path d="M78.264 219.158s-14.075 28.183-14.082 28.183c-1.162 5.816-2.073 10.946-2.304 13.639a.105.105 0 000 .046 4.108 4.108 0 00.073 1.882.105.105 0 000 .046c1.498 1.519 47.75 12.167 49.513 11.996 1.763-.172 1.386-5.143-.079-6.985-1.466-1.842-17.356-13.864-17.356-13.864l13.758-28.229-29.523-6.714z" fill="#D3766A"/><path d="M110.764 274.976c-1.736.172-47.295-10.483-48.787-11.995a.169.169 0 010-.046 4.083 4.083 0 01-.079-1.882.066.066 0 010-.046c.224-2.693 1.142-7.823 2.297-13.646l3.367-6.747 29.187 8.002-2.694 5.532s15.184 11.995 16.656 13.864c1.473 1.868 1.796 6.799.053 6.964z" fill="#EBEBEB"/><path d="M111.398 274.237c-1.763.132-48.127-11.685-49.606-13.257-.567-.587.76-7.446 2.601-15.685l.06-.258 29.998 7.295-.138.502s15.718 12.464 17.164 14.365c1.446 1.901 1.677 6.912-.079 7.038z" fill="#263238"/><path d="M111.325 272.302c-7.763-2.178-39.293-10.259-47.136-11.83-.066 0-.08.033 0 .053 7.651 2.33 39.247 10.153 47.123 11.883.152.06.178-.059.013-.106zM96.801 253.567c-2.93-1.36-6.813-1.849-9.717-.251-.113.059 0 .218.079.211 3.181-.2 6.375-.058 9.526.422a.207.207 0 00.13-.036.204.204 0 00-.018-.346zM98.676 255.468c-2.924-1.353-6.806-1.842-9.718-.251-.112.059 0 .218.086.218a44.269 44.269 0 019.527.422.203.203 0 00.205-.29.203.203 0 00-.1-.099zM100.558 257.376c-2.931-1.36-6.813-1.849-9.718-.258-.112.066 0 .225.086.218 3.18-.199 6.37-.058 9.52.423a.215.215 0 00.13-.037.213.213 0 00.079-.11.208.208 0 00-.007-.135.206.206 0 00-.09-.101z" fill="#fff"/><path d="M112.527 272.758c.746.528-.145 3.268-.799 3.341-.653.072-51.15-13.039-51.949-13.455-.799-.416.297-3.413 1.32-3.301 1.024.113 51.428 13.415 51.428 13.415z" fill="#FF5963"/><path d="M70.784 252.18c-2.931-2.535-6.879 2.02-3.961 4.562 2.918 2.542 6.899-2.02 3.961-4.562z" fill="#fff"/><path d="M67.648 238.363l33.828 8.529s31.53-56.9 30.823-71.365c-.97-19.95-24.393-81.294-24.393-81.294H79.862s18.61 66.315 18.867 77.472c.113 5.836-31.08 66.658-31.08 66.658z" fill="#455A64"/><path d="M102.921 240.027c-1.802-.72-17.904-5.368-29.919-7.923a.072.072 0 00-.033.024.066.066 0 00.033.102c3.783 1.32 27.655 7.612 29.893 7.922.053.02.106-.073.026-.125zM101.053 157.459a958.32 958.32 0 00-7.13-27.972c-2.509-9.275-5.196-18.637-8.147-27.84-.356-1.128-.732-2.244-1.096-3.366a.141.141 0 10-.27.079c2.64 9.17 5.281 18.32 7.783 27.523a1002.47 1002.47 0 017.13 27.727 617.284 617.284 0 011.644 6.892 61.488 61.488 0 011.439 7.176 18.584 18.584 0 01-.468 6.906 38.813 38.813 0 01-2.49 6.43c-4.044 8.78-8.086 17.563-12.127 26.347-4.04 8.807-4.694 10.814-8.582 19.693-.482 1.103-.964 2.205-1.426 3.301 0 .073.073.139.112.06 4.423-8.702 5.103-10.794 9.243-19.654 4.139-8.859 8.252-17.825 12.358-26.744 1.849-4.027 4.021-8.133 4.298-12.635.277-4.701-1.202-9.414-2.271-13.923z" fill="#263238"/><path d="M102.584 230.302l1.083 31.028c.178 5.942.436 11.137.825 13.811a4.176 4.176 0 00.489 1.862l.04.039c1.802 1.143 49.262 1.116 50.919.555 1.657-.561.191-5.314-1.651-6.787-1.842-1.472-20.023-9.585-20.023-9.585l-1.38-30.996-30.302.073z" fill="#D3766A"/><path d="M103.443 254.979l.224 6.371c.179 5.942.436 11.137.826 13.811a.09.09 0 000 .046c.09.622.254 1.232.488 1.816l.04.039c1.802 1.142 49.262 1.116 50.919.555 1.657-.561.191-5.315-1.65-6.787-1.842-1.472-20.024-9.586-20.024-9.586l-.138-6.463-30.685.198z" fill="#EBEBEB"/><path d="M155.966 277.564c-1.676.535-49.513-.204-51.322-1.393-.66-.442-.99-7.413-1.109-15.844v-.264l30.87.132v.528s18.188 8.47 20.03 9.982c1.842 1.512 3.215 6.344 1.531 6.859z" fill="#263238"/><path d="M155.458 275.729c-8.061-.324-40.607-.865-48.602-.568-.066 0-.066.046 0 .046 7.982.495 40.535.779 48.602.66.165-.039.172-.138 0-.138zM136.98 260.842c-3.163-.66-7.058-.218-9.514 1.98-.099.086 0 .218.133.192a45.04 45.04 0 019.361-1.802.2.2 0 00.108-.293.199.199 0 00-.088-.077zM139.251 262.255c-3.169-.66-7.058-.212-9.513 2.013-.099.086 0 .218.125.185a44.718 44.718 0 019.368-1.796.206.206 0 00.125-.063.208.208 0 00.013-.263.202.202 0 00-.118-.076zM141.515 263.674c-3.162-.66-7.05-.218-9.513 1.981-.092.085 0 .217.132.191a45.062 45.062 0 019.362-1.802.2.2 0 00.137-.178.199.199 0 00-.118-.192z" fill="#fff"/><path d="M156.726 275.861c.851.343.62 3.215 0 3.433-.621.218-52.814-.819-53.666-1.03-.852-.211-.508-3.387.528-3.539 1.037-.152 53.138 1.136 53.138 1.136z" fill="#FF5963"/><path d="M111.352 265.529c-3.44-1.789-6.226 3.558-2.78 5.348 3.447 1.789 6.226-3.559 2.78-5.348z" fill="#fff"/><path d="M107.556 94.18c-.126.575-7.117 28.217-7.988 28.732-.99.587 25.403 36.098 28.532 53.533 1.981 11.15 6.602 76.145 6.602 76.145h-33.656s-3.3-55.198-4.396-73.385c-.43-7.058-26.903-39.684-29.418-61.436-.792-6.853 4.133-23.615 4.133-23.615l36.191.027z" fill="#455A64"/><path d="M100.195 226.328c-.396-9.144-.76-18.307-1.426-27.437-.376-5.176-1.116-10.187-1.63-15.343 0-.27-.245-.336-.238-.059.237 9.183.997 18.267 1.485 27.443.489 9.177.957 11.316 1.479 20.466.29 5.176.548 10.351.951 15.521a.058.058 0 00.024.032.058.058 0 00.038.013.061.061 0 00.039-.013.064.064 0 00.024-.032c.02-9.19-.343-11.415-.746-20.591zM128.133 176.881a48.834 48.834 0 00-1.399-7.15 36.64 36.64 0 00-2.727-6.569c-2.291-4.396-4.898-8.648-7.414-12.919a620.039 620.039 0 00-7.79-12.9c-1.492-2.394-2.99-4.786-4.495-7.176-1.532-2.41-3.149-4.773-4.727-7.15a.088.088 0 00-.122-.029.089.089 0 00-.03.122c2.575 4.317 5.123 8.641 7.697 12.959 2.575 4.317 5.11 8.648 7.645 12.979 2.535 4.331 4.998 8.529 7.388 12.86a45.228 45.228 0 013.03 6.417 39.517 39.517 0 011.697 7.057c.897 5.592 1.63 11.223 2.752 16.762a.073.073 0 00.024.033.07.07 0 00.039.013.068.068 0 00.063-.046c-.35-5.096-.957-10.2-1.631-15.263zM131.738 246.82c-1.921-.251-16.584-.76-28.85-.232-.079 0-.072.119 0 .126 3.994.35 26.579.508 28.83.244.06-.006.086-.125.02-.138z" fill="#263238"/><path d="M103.958 121.023a62.745 62.745 0 00-9.903 4.622.11.11 0 00-.059.062.112.112 0 00.152.142c3.34-1.439 6.753-2.812 10.014-4.429a.228.228 0 00.111-.131.225.225 0 00-.315-.266zM104.968 98.142c0-.112-.211-.139-.211 0 0 3.73-.187 7.458-.561 11.17-.159 1.723-1.545 11.223-4.53 10.563-.501-.119-.752-.608-.831-1.367.008-.985.141-1.966.396-2.918.33-1.98.594-3.961.766-6.001.35-3.748.31-7.522-.119-11.263a.099.099 0 00-.192 0c.087 5.196-.218 10.391-.91 15.541-.377 2.476-1.625 6.206.97 6.602 2.594.396 4.344-5.856 4.661-7.566a57.068 57.068 0 00.561-14.761z" fill="#263238"/><path d="M99.746 120.079a15.482 15.482 0 00-.66 1.981 4.536 4.536 0 00-.278 1.617.114.114 0 00.029.061.117.117 0 00.058.033.116.116 0 00.066-.005.117.117 0 00.052-.043 5.536 5.536 0 00.693-1.577c.231-.614.469-1.215.66-1.836a.327.327 0 00-.009-.253.326.326 0 00-.185-.172.33.33 0 00-.426.194zM101.152 188.077c-.317-4.7-.297-9.658-2.297-14.015a46.744 46.744 0 00-3.658-6.1 443.27 443.27 0 01-4.04-6.292c-5.281-8.43-10.378-17.032-15.019-25.845-2.238-4.245-4.298-8.629-5.42-13.316a42.587 42.587 0 01-.614-15.026c.159-1.248.33-2.489.535-3.73a.074.074 0 00-.015-.047.074.074 0 00-.09-.021.072.072 0 00-.034.035 49.189 49.189 0 00-1.102 14.524 40.52 40.52 0 003.875 13.395c2.047 4.43 4.483 8.695 6.886 12.939a398.623 398.623 0 007.651 13.012c2.64 4.265 5.36 8.444 8.087 12.643a24.042 24.042 0 013.215 6.463c.6 2.404.946 4.865 1.03 7.341.66 10.391 3.301 44.938 4.238 55.277.113 1.32.231 2.64.357 3.961a.099.099 0 00-.002.042.09.09 0 00.018.038.084.084 0 00.032.027.098.098 0 00.082 0 .096.096 0 00.033-.027.1.1 0 00.017-.038.099.099 0 00-.002-.042c-.396-10.378-3.083-44.839-3.763-55.198z" fill="#263238"/><path d="M84.997 103.291c0-.072-.118-.046-.118 0-.1 2.885 0 5.869-1.13 8.582-1.016 2.503-3.063 4.259-5.353 5.572a40.812 40.812 0 01-4.113 2.014c-.1.046-.06.205.052.172 2.641-.846 5.368-1.763 7.58-3.532 2.363-1.902 3.4-4.655 3.511-7.625a24.613 24.613 0 00-.429-5.183z" fill="#263238"/><path d="M99.647 56.267c3.776 11.592 13.976 31.338 17.62 33.722 3.228 2.105 18.419-.245 25.086-1.849 2.483-.6-3.102-19.521-5.75-18.828-3.175.832-12.635 2.964-13.322 2.436-.687-.528-10.226-12.28-16.986-19.198-6.153-6.265-8.074-.667-6.648 3.717z" fill="#D3766A"/><path d="M140.895 88.285c1.274-.158 12.054-.66 16.999-3.347 2.641-1.433 9.381-6.172 8.708-7.876-.614-1.551-2.78-.706-2.78-.706s2.978-2.159 2.106-4.311c-.871-2.152-4.469-.535-4.469-.535s2.898-2.443 1.875-4.522c-1.023-2.08-4.364.145-4.364.145s2.753-2.106 1.189-3.466c-1.889-1.637-6.53 2.826-9.665 3.869-.713.238-14.762 3.79-14.762 3.79l5.163 16.96z" fill="#D3766A"/><path d="M158.851 67.074c-3.419 3.268-5.486 4.106-10.054 5.03-.086 0-.079.159 0 .146 4.555-.495 7.295-1.175 10.206-5.018.159-.191.007-.316-.152-.158zM161.347 71.431c-3.849 3.09-6.08 4.014-10.794 5.334-.066 0-.04.139.033.126 4.727-.911 7.447-1.65 10.886-5.242.159-.159.053-.356-.125-.218zM163.591 76.409c-3.961 2.72-6.344 3.849-11.084 4.542a.086.086 0 100 .172c4.905-.238 7.922-1.618 11.137-4.582.238-.185.192-.297-.053-.132z" fill="#263238"/><path d="M132.048 71.933s3.928-4.443 6.08-6.014c2.153-1.572 12.346-4.476 13.098-2.31.971 2.798-4.581 5.63-7.479 6.66 0 0 2.251 6.47-1.321 9.362-3.571 2.891-10.378-7.698-10.378-7.698z" fill="#D3766A"/><path d="M151.246 64.473c-.957 3.188-4.852 4.297-7.592 5.505a.284.284 0 00-.105.442c.765 2.774 1.029 6.906-.911 9.243-.053.066.033.159.099.1 2.422-2.219 2.488-6.305 1.459-9.29 2.832-1.194 6.687-2.482 7.077-5.987.006-.013-.02-.013-.027-.013z" fill="#263238"/><path d="M140.888 91.54l-4.978-22.67-12.318 2.238c-4.859-5.566-14.571-16.69-18.485-20.03-4.622-3.922-7.645-.977-5.942 4.964 3.849 13.58 15.105 33.517 18.049 35.399 4.272 2.74 23.674.099 23.674.099z" fill="#FF2C38"/><path opacity=".1" d="M123.301 78.006c.61.133 1.231.206 1.855.218 1.32.178 1.901 2.126.7 2.865a4.74 4.74 0 01-4.252.363c-1.32-.515-2.436-1.795-2.152-3.3a1.648 1.648 0 012.641-1.017c.366.338.771.63 1.208.871zm-3.407-5.393c-.475 2.244 2.998 4.172 4.774 2.977a1.203 1.203 0 00.473-.923 1.2 1.2 0 00-.427-.945c-.522-.423-.958-.489-1.42-.872a2.105 2.105 0 01-.422-.442 3.16 3.16 0 00-.984-.885 1.443 1.443 0 00-1.746.491 1.467 1.467 0 00-.248.599zm-5.538.118c-.713.931-.179 2.33.449 3.176a2.865 2.865 0 002.594 1.26.962.962 0 00.788-1.232.963.963 0 00-.299-.457 3.065 3.065 0 01-.925-1.149c-.31-.7-.515-1.604-1.32-1.908a1.13 1.13 0 00-1.287.31zm14.622 14.683c-.93 1.881 1.902 4.02 3.618 3.65.575-.125 1.129-.878.621-1.419-.41-.436-.898-.779-1.281-1.241-.469-.561-.726-1.28-1.459-1.565a1.16 1.16 0 00-1.499.575zM102.387 64.34a2.532 2.532 0 00-.661-.8c.37.947.76 1.895 1.169 2.846a3.898 3.898 0 00-.508-2.046zm3.677-1.98a7.825 7.825 0 00-1.822-4.43c-.792-1.024-2.166-2.641-3.618-2.291a.753.753 0 00-.528.726c-.093 1.115 1.188 2.31 1.743 3.202.66 1.122 1.181 2.363 1.894 3.479a1.27 1.27 0 001.425.524 1.266 1.266 0 00.906-1.218v.007zm-.429 7.096a1.205 1.205 0 001.109-.911 2.988 2.988 0 00-.099-1.538 2.59 2.59 0 00-.66-1.255.943.943 0 00-.902-.21.94.94 0 00-.643.666 4.265 4.265 0 000 1.162v.502c-.004.248.023.496.079.739a1.169 1.169 0 001.116.838v.007z" fill="#030402"/><path d="M136.577 89.56c-.568-1.32-1.981-7.183-2.291-8.642-.31-1.459-1.459-7.361-1.796-8.86 0-.085.093-.132.113-.052.356 1.478 1.947 7.301 2.297 8.754.35 1.452 1.664 7.308 1.756 8.78.001.005.002.01.001.016a.071.071 0 01-.005.015.042.042 0 01-.026.018.039.039 0 01-.03-.004.04.04 0 01-.019-.025z" fill="#263238"/><path opacity=".1" d="M125.136 92.676c-3.466 0-6.509-.33-7.922-1.235-2.964-1.914-14.22-21.786-18.095-35.392-.977-3.406-.39-5.836 1.155-6.542l24.862 43.169z" fill="#000"/><path d="M69.272 97.29c.086.125 41.281 5.407 41.723 5.024a29.66 29.66 0 00.495-3.473s-3.776-44.852-5.73-47.486c-1.71-2.297-6.899-3.961-10.43-2.462-7.414 3.142-25.166 43.215-24.975 44.891-.013-.02-1.188 3.347-1.083 3.506z" fill="#FF2C38"/><path opacity=".1" d="M84.126 91.83c.635.309 1.299.556 1.98.74 1.374.548 1.5 2.839 0 3.3a5.36 5.36 0 01-4.753-.759c-1.32-.924-2.172-2.64-1.459-4.172a1.863 1.863 0 013.156-.396c.37.43.594.997 1.076 1.287zm-2.258-6.82c-1.129 2.331 2.14 5.375 4.404 4.55a1.32 1.32 0 00.554-2.034c-.449-.6-.91-.792-1.32-1.32a2.34 2.34 0 01-.337-.601 3.77 3.77 0 00-.838-1.228c-.786-.76-2.047-.224-2.463.634zm-3.816-2.482c-1.234.463-1.55 2.126-1.459 3.301a3.23 3.23 0 001.73 2.753 1.083 1.083 0 001.472-1.32 3.367 3.367 0 01-.21-1.664c.111-.845.448-1.835-.113-2.594a1.275 1.275 0 00-1.42-.476zm13.534 7.857a1.228 1.228 0 00-1.32 1.05 1.44 1.44 0 001.023 1.524c.45.149.936.149 1.386 0 .23-.09.42-.262.535-.482a1.07 1.07 0 00.152-.713 1.155 1.155 0 00-.904-.95.751.751 0 00-.146-.146 1.372 1.372 0 00-.726-.283zm-10.12-15.93c-1.11 1.135-.66 3.716.607 4.588a1.176 1.176 0 001.875-.773c.02-.261.02-.524 0-.785 0-.284-.04-.462 0-.66.099-.565.119-1.14.06-1.71a1.452 1.452 0 00-2.542-.66zM74.303 90.88c-1.525 1.809.99 4.911 2.964 4.97.66 0 1.472-.66 1.063-1.386-.33-.58-.773-1.096-1.063-1.696-.357-.74-.442-1.604-1.169-2.106a1.32 1.32 0 00-1.795.218zm36.422-.575a1.27 1.27 0 00-1.044.951c-.211.733-.237 1.386-.785 1.98a9.075 9.075 0 00-1.585 1.605.968.968 0 00.042.957.966.966 0 00.843.456 4.563 4.563 0 002.951-1.611c-.132-1.255-.264-2.727-.416-4.364l-.006.026zm-3.301-5.446c-.37.898-.304 1.914-.614 2.852a22.49 22.49 0 01-.971 2.522c-.277.594.278 1.531.997 1.214a4.97 4.97 0 002.68-2.449c.502-1.036 1.057-2.78.575-3.882-.482-1.102-2.119-1.584-2.681-.284l.014.027zm-3.763 8.998a5.95 5.95 0 01-2.053 1.683 1.41 1.41 0 00-.994 1.351 1.417 1.417 0 00.478 1.059 1.412 1.412 0 001.671.145 5.085 5.085 0 002.865-3.208c.31-1.142-1.234-1.888-1.98-1.056l.013.026zm-6.034-32.349a1.459 1.459 0 001.716-1.069c.37-1.42-.898-2.878-1.901-3.763-1.004-.885-2.416-1.69-3.823-1.235a1.156 1.156 0 00-.468 1.908c.614.766 1.465 1.32 2.119 2.073.654.753 1.195 1.869 2.344 2.06l.013.026zm5.063 5.605c.555-.798.126-1.98-.27-2.74a2.424 2.424 0 00-.944-1.003 1.23 1.23 0 00-1.69.363c-.18.376-.209.806-.08 1.202a3.3 3.3 0 00.225.6V65.649c.118.63.385 1.223.779 1.73a1.25 1.25 0 001.591.156c.16-.109.294-.252.389-.42zm3.407-4.727a7.832 7.832 0 00-1.822-4.43c-.793-1.023-2.166-2.64-3.618-2.29a.753.753 0 00-.528.726c-.093 1.116 1.188 2.31 1.743 3.202.66 1.122 1.181 2.363 1.894 3.48a1.272 1.272 0 001.409.47 1.263 1.263 0 00.889-1.19l.033.032zm-4.985 11.303c.242.053.492.053.733 0 .366-.113.675-.36.865-.693.177-.355.266-.747.258-1.142a2.335 2.335 0 00-.298-1.07l-.217-.27-.291-.212a1.361 1.361 0 00-1.941.871c-.11.385-.187.778-.23 1.176l.059.363c.046.182.137.35.264.488.199.23.468.39.765.456l.033.033zm4.556-4.206a1.205 1.205 0 001.109-.91 2.988 2.988 0 00-.099-1.539 2.59 2.59 0 00-.66-1.254.943.943 0 00-.902-.211.94.94 0 00-.643.666 4.265 4.265 0 000 1.162v.502c-.004.249.023.497.079.74a1.17 1.17 0 001.083.811l.033.033z" fill="#030402"/><path d="M103.35 58.386c-2.515-.231-5.736-5.605-6.35-9.018-.04-.238.963-2.225 2.066-4.694.66-1.499 1.373-3.189 1.901-4.773l9.137 5.75a26.668 26.668 0 00-3.004 5.77 3.726 3.726 0 00-.145.66 1.05 1.05 0 010 .112c-.231 1.32-1.169 6.417-3.605 6.193z" fill="#D3766A"/><path d="M106.955 52.094a1.05 1.05 0 010 .113 7.256 7.256 0 01-1.036-.284c-5.718-2.06-4.708-9.56-4.305-11.633l2.278 1.44 6.238 3.96a26.48 26.48 0 00-2.997 5.77 3.662 3.662 0 00-.178.634z" fill="#263238"/><path d="M101.924 29.319c-1.888 3.4-2.218 14.319-.125 17.217 3.024 4.199 9.097 5.836 12.946 1.98 3.73-3.776 3.902-18.016 1.472-20.762-3.591-4.08-11.507-3.46-14.293 1.565z" fill="#D3766A"/><path d="M110.692 38.145s-.06 0-.06.066c0 .753-.132 1.61-.818 1.835v.047c.838-.093.997-1.235.878-1.948z" fill="#263238"/><path d="M110.051 37.34c-1.208-.132-1.386 2.284-.27 2.41 1.115.125 1.28-2.298.27-2.41zM115.022 38.402s.053.04.053.073c-.086.746-.053 1.617.601 1.914v.047c-.825-.185-.852-1.34-.654-2.034z" fill="#263238"/><path d="M115.755 37.676c1.208 0 1.109 2.423 0 2.423s-1.017-2.43 0-2.423zM111.028 36.851c-.336.073-.66.08-.99.12-.342.089-.704.063-1.03-.073a.514.514 0 01-.205-.595 1.278 1.278 0 011.096-.66c.456-.087.929.002 1.321.251a.541.541 0 01-.192.957zM116.838 35.425a8.745 8.745 0 01-.944-.324 1.596 1.596 0 01-.898-.508.509.509 0 01.072-.62 1.258 1.258 0 011.281-.146c.446.122.832.404 1.083.793a.544.544 0 01-.036.595.548.548 0 01-.558.21zM110.144 44.1a6.35 6.35 0 012.957 0c.086 0 .172-.172.192-.25l.052-1.585c.205.118 1.235.66 1.235.37a37.719 37.719 0 00-.469-7.698.072.072 0 00-.138 0c-.106 2.383.198 4.76.125 7.156a4.372 4.372 0 00-1.162-.442c-.086 0 0 1.683 0 1.934a3.685 3.685 0 00-2.773.152c-.343.218-.481.508-.019.363zM108.189 45.671c.166.185.331.436.595.476.277.013.554-.035.812-.14 0 0 .046 0 0 .04a.986.986 0 01-.964.344.786.786 0 01-.542-.66c.014-.073.073-.086.099-.06z" fill="#263238"/><path opacity=".2" d="M105.113 25.852c-.099 1.697-.501 6.959-1.32 8.028-.819 1.07-2.548 3.559-3.426 3.961.118-3.505.66-6.84 1.564-8.582a8.968 8.968 0 013.182-3.407z" fill="#263238"/><path d="M114.521 30.995a3.859 3.859 0 01-3.611 1.056 3.91 3.91 0 01-2.859-2.568c0-.04-.073 0-.059 0a3.872 3.872 0 002.838 2.846 3.965 3.965 0 003.757-1.32c.039.006-.013-.053-.066-.014zM111.206 21.212a6.06 6.06 0 00-5.281 2.442 4.342 4.342 0 00-.621 2.786h.086a4.742 4.742 0 012.542-4.126 6.14 6.14 0 015.453-.27 3.91 3.91 0 011.981 1.815c.039.086.211.046.178-.04-.542-1.439-2.291-2.508-4.338-2.607zM123.816 26.968a4.884 4.884 0 00-1.902-2.766c-1.32-.944-2.865-.93-4.41-.878-.046 0-.039.066 0 .06a6.852 6.852 0 013.816.706 4.842 4.842 0 012.067 2.515 4.721 4.721 0 01-2.37 5.717 4.796 4.796 0 01-3.803.12c-.046 0-.086.045-.04.072a4.828 4.828 0 006.642-5.546z" fill="#263238"/><path d="M101.264 31.464s-1.822-4.152.126-6.331c1.102-1.228 4.416-.805 4.416-.805a6.035 6.035 0 014.027-2.258c2.832-.443 6.061 1.472 6.061 1.472s2.759-1.32 5.129.284c3.301 2.238 2.476 7.473-1.129 8.899-2.535 1.01-5.69-1.406-5.69-1.406-.317 0-3.737 1.743-5.988-1.36 0 0-2.139 1.63-3.849.244a2.917 2.917 0 01-3.103 1.261z" fill="#263238"/><path d="M102.34 38.363s-1.729-3.875-3.44-3.301c-1.709.574-.877 5.843.813 6.872a1.878 1.878 0 002.118.016c.208-.14.386-.32.523-.53l-.014-3.057z" fill="#D3766A"/><path d="M99.178 36.554v.046c1.175.76 1.618 2.073 1.849 3.387a1.046 1.046 0 00-.605-.624 1.036 1.036 0 00-.867.056c-.04 0 0 .073 0 .073a1.148 1.148 0 011.175.66c.179.357.316.734.409 1.122 0 .126.251.106.238 0 .336-1.703-.489-4.218-2.199-4.72z" fill="#263238"/><path d="M193.846 46.061L122.77 67.832l12.815 41.838 71.076-21.771-12.815-41.838z" fill="#FF5963"/><path opacity=".2" d="M193.843 46.055l-23.886 7.316 12.815 41.838 23.886-7.316-12.815-41.838z" fill="#000"/><path d="M192.699 48.187a999.852 999.852 0 00-2.351 11.117l-2.251 11.144-2.178 11.19c-.713 3.723-1.409 7.453-2.087 11.19a958.822 958.822 0 002.351-11.118l2.251-11.144 2.178-11.163c.713-3.741 1.409-7.48 2.087-11.216z" fill="#FF5963"/><path d="M204.43 86.49a870.254 870.254 0 00-7.995-8.1l-8.054-8.028-8.107-7.969a2298.1 2298.1 0 00-8.173-7.922 773.837 773.837 0 007.995 8.1l8.054 8.028 8.107 7.969a856.18 856.18 0 008.173 7.922z" fill="#FF5963"/><path d="M136.421 73.217l.391-.12-1.684-5.498-.391.12 1.684 5.498zM135.491 73.496l.392-.12-1.684-5.498-.392.12 1.684 5.498zM134.553 73.795l.391-.12-1.684-5.498-.391.12 1.684 5.498zM133.618 74.065l.391-.12-1.683-5.498-.391.12 1.683 5.498zM132.687 74.356l.392-.12-1.684-5.498-.392.12 1.684 5.498zM131.756 74.635l.391-.12-1.684-5.498-.391.12 1.684 5.498zM130.813 74.943l.391-.12-1.684-5.498-.391.12 1.684 5.498zM129.88 75.22l.392-.12-1.685-5.497-.392.12 1.685 5.498zM128.939 75.517l.391-.12-1.684-5.498-.391.12 1.684 5.498zM139.086 66.843l-1.624.04 3.518-1.09-1.373.885.621 2.02c1.115-.192 1.868.74 2.436 2.588l-3.519 1.109c-.568-1.842-.469-3.037.561-3.506l-.62-2.046zM142.624 68.25l.918-.285-.825-2.687 2.35-.726.825 2.694.925-.284-1.242 3.446-2.951-2.159z" fill="#263238"/><path opacity=".1" d="M122.766 67.827l1.057 3.433 49.13-8.1-2.997-9.784-47.19 14.45z" fill="#000"/><path d="M215.871 92.636l-23.892 7.315-9.209-4.74 23.891-7.322 9.21 4.747z" fill="#FF5963"/><path opacity=".2" d="M216.101 92.747l-23.891 7.314-9.21-4.74L206.892 88l9.209 4.747z" fill="#000"/><path d="M130.609 118.753l23.892-7.322 4.971-9.084-23.892 7.315-4.971 9.091z" fill="#FF5963"/><path opacity=".1" d="M131 118.405l23.892-7.321 4.971-9.084-23.892 7.315-4.971 9.09z" fill="#FF5963"/><path d="M91.29 61.37c3.491 11.679 13.203 31.689 16.807 34.131 3.176 2.185 18.419.198 25.087-1.248 2.495-.534-2.641-19.587-5.282-18.96-3.195.76-12.708 2.641-13.381 2.12-.674-.522-9.903-12.544-16.505-19.594-5.994-6.417-8.047-.865-6.727 3.551z" fill="#D3766A"/><path d="M126.529 76.845s5.051-5.691 8.629-7.863a26.867 26.867 0 0112.371-3.532c4.694-.185 16.175 2.601 15.944 6.047-.205 3.123-11.791-.323-11.791-.323s12.391 1.564 11.454 5.281c-.937 3.717-14.161-1.056-14.161-1.056s12.695 1.888 11.151 5.578c-1.189 2.78-13.409-.864-13.409-.864s10.907 1.703 9.804 4.62c-1.215 3.216-12.708.562-12.708.562-4.034 6.919-8.794 8.582-12.313 9.328-.878.152-4.971-17.778-4.971-17.778z" fill="#D3766A"/><path d="M147.43 70.355c1.459.132 2.945.257 4.391.515 1.445.257 2.878.574 4.297.97a25.184 25.184 0 015.361 2.053c-3.136-1.353-8.298-2.37-9.744-2.64-1.446-.27-2.879-.594-4.318-.852-.039.013-.026-.046.013-.046zM146.394 75.564c1.855.244 3.717.422 5.565.752 1.849.33 3.558.806 5.374 1.261.139.033.073.1-.066.066-1.835-.383-3.552-.594-5.387-.95-1.835-.357-3.657-.793-5.499-1.09-.027 0-.02-.046.013-.04zM144.697 79.868c2.863.31 5.686.917 8.424 1.809.139.04.046.112-.099.08-2.786-.661-4.971-1.19-8.331-1.79-.053-.007-.053-.106.006-.099z" fill="#263238"/><path d="M131.672 97.633l-4.436-22.789-12.365 1.941c-4.727-5.677-14.168-17.032-18.023-20.465-4.522-4.034-7.619-1.156-6.067 4.82 3.552 13.658 14.326 33.833 17.244 35.814 4.185 2.838 23.647.68 23.647.68z" fill="#FF2C38" fill-opacity=".82"/><path opacity=".1" d="M123.301 78.006c.61.133 1.231.206 1.855.218 1.32.178 1.901 2.126.7 2.865a4.742 4.742 0 01-4.252.363c-1.32-.514-2.436-1.795-2.152-3.3a1.648 1.648 0 011.868-1.348c.282.042.548.156.773.33a6.13 6.13 0 001.208.872zm-1.321-2.337a2.87 2.87 0 002.641-.079.983.983 0 00.343-.396l-2.984.475zm-6.423 1.004a2.64 2.64 0 001.822.495.965.965 0 00.832-.911l-2.654.416zm13.996 10.173c-.262.11-.473.312-.594.568-.555 1.115.217 2.317 1.32 3.037l-.726-3.605zm-19.885 4.384c-.211.732-.237 1.386-.785 1.98a9.065 9.065 0 00-1.572 1.63.968.968 0 00.042.958.965.965 0 00.843.456 4.622 4.622 0 004.054-4.767 1.325 1.325 0 00-1.179-1.15 1.319 1.319 0 00-1.383.893h-.02zm-2.277-6.398c-.37.898-.304 1.915-.614 2.853-.273.859-.597 1.701-.971 2.521-.277.594.277 1.532.997 1.215a4.97 4.97 0 002.68-2.45c.502-1.036 1.057-2.779.575-3.881-.482-1.103-2.086-1.558-2.648-.258h-.019zm-9.797-23.35a1.46 1.46 0 001.716-1.07c.37-1.419-.898-2.878-1.901-3.762-1.004-.885-2.416-1.69-3.823-1.235a1.157 1.157 0 00-.468 1.908c.614.766 1.465 1.32 2.119 2.073.653.753 1.228 1.895 2.376 2.086h-.02zm5.096 5.631c.555-.798.126-1.98-.27-2.74a2.42 2.42 0 00-.945-1.003 1.226 1.226 0 00-1.69.363c-.18.376-.208.806-.079 1.202.055.207.13.408.225.6V65.649c.118.63.385 1.223.779 1.73a1.25 1.25 0 001.591.156 1.25 1.25 0 00.389-.42zm-1.578 6.602c.242.053.492.053.733 0 .366-.112.675-.36.865-.693a2.335 2.335 0 00-.04-2.212l-.217-.27-.291-.212a1.36 1.36 0 00-1.941.872c-.11.384-.187.778-.23 1.175l.058.363c.047.182.137.35.265.489.203.22.471.37.765.429l.033.06zm5.539-6.7l-1.32-1.486a.865.865 0 00-.944.66 4.265 4.265 0 000 1.162v.502c-.004.249.023.497.079.74a1.171 1.171 0 001.169.844 1.208 1.208 0 001.109-.91 2.996 2.996 0 00-.093-1.513z" fill="#030402"/><path d="M127.407 95.54c-.535-1.353-1.789-7.228-2.086-8.7-.297-1.473-1.281-7.388-1.578-8.9 0-.079.093-.132.112-.046.317 1.485 1.776 7.341 2.087 8.807.31 1.465 1.492 7.341 1.544 8.82a.042.042 0 01-.004.03.04.04 0 01-.056.014.04.04 0 01-.019-.024zM123.327 98.274a93.444 93.444 0 01-6.08.151 49.358 49.358 0 01-6.087-.35 9.747 9.747 0 01-2.997-.792 8.952 8.952 0 01-2.192-2.211 45.117 45.117 0 01-3.241-5.183c-1.981-3.558-3.684-7.261-5.348-10.945-1.663-3.684-3.175-7.473-4.561-11.29 1.683 3.691 3.347 7.388 5.076 11.052 1.73 3.664 3.48 7.315 5.368 10.886a54.415 54.415 0 003.116 5.176 8.429 8.429 0 001.98 2.159c.9.415 1.861.685 2.846.799 4.02.487 8.072.67 12.12.548z" fill="#263238"/><path d="M94.108 70.876a6.253 6.253 0 01-.733-.89 3.606 3.606 0 01-.508-1.037c.1.164.207.322.323.475l.324.469c.217.316.416.644.594.983zM104.532 64.757c1.67 1.677 3.169 3.519 4.72 5.281 1.552 1.763 3.037 3.625 4.622 5.38l.587.66c.106.1.205.212.304.304.099.093.099.086.145.126h.073c.502 0 1.135-.112 1.703-.185l3.512-.521c2.337-.344 4.681-.7 7.024-1.017l.086.58-.138-.573h.033c-2.318.495-4.622.937-6.972 1.366-1.168.211-2.337.396-3.512.574-.601.105-1.207.175-1.815.212a.575.575 0 01-.146 0 .546.546 0 01-.178-.093 2.404 2.404 0 01-.191-.165l-.324-.317a19.01 19.01 0 01-.607-.66 196.427 196.427 0 01-4.536-5.473l-2.211-2.779c-.72-.865-1.38-1.816-2.179-2.7z" fill="#263238"/><path d="M105.397 64.955c.249.305.47.632.66.977.186.34.318.708.39 1.089-.079-.178-.178-.337-.271-.508l-.271-.509a10.99 10.99 0 01-.508-1.05z" fill="#263238"/><path d="M158.145 14.807a14.665 14.665 0 01-23.403 11.77l-7.19 1.837 2.991-6.688a14.66 14.66 0 01-.48-12.862 14.67 14.67 0 0128.082 5.943z" fill="#fff"/><path d="M158.145 14.808a14.821 14.821 0 01-2.166 7.704 16.9 16.9 0 01-1.135 1.69 16.465 16.465 0 01-1.406 1.465 14.352 14.352 0 01-7.13 3.651c-.669.13-1.346.214-2.027.251-.679.056-1.361.056-2.04 0a14.871 14.871 0 01-7.605-2.806l.198.04-7.169 1.888-.581.152.244-.555 2.964-6.7v.277a14.835 14.835 0 01-.462-13.118c.936-2.07 2.328-3.9 4.073-5.354A14.943 14.943 0 01146.565.337a15.027 15.027 0 015.988 2.865 14.761 14.761 0 015.592 11.606zm0 0A14.528 14.528 0 00146.486.568a14.523 14.523 0 00-6.529.198 14.343 14.343 0 00-5.763 3.01 15.121 15.121 0 00-3.856 5.242c-.877 2-1.288 4.175-1.201 6.357a14.722 14.722 0 001.69 6.186l.072.139-.066.139-3.017 6.68-.336-.396 7.202-1.782h.112l.086.066a14.428 14.428 0 007.348 2.872c.659.048 1.321.048 1.981 0a14.083 14.083 0 005.802-1.473 13.637 13.637 0 003.301-2.257c.499-.453.968-.935 1.407-1.446.42-.525.81-1.074 1.168-1.644a14.776 14.776 0 002.258-7.651z" fill="#263238"/><path d="M144.499 16.392v1.618a1.177 1.177 0 01-.348.873 1.179 1.179 0 01-.873.348 1.218 1.218 0 01-1.124-.754 1.206 1.206 0 01-.091-.467v-2.582-.052-.047a1.253 1.253 0 011.215-1.22 2.787 2.787 0 100-5.566 2.744 2.744 0 00-2.383 1.366 1.246 1.246 0 01-.752.576 1.236 1.236 0 01-.939-.127 1.21 1.21 0 01-.558-.747 1.208 1.208 0 01.136-.923 5.219 5.219 0 016.731-2.106 5.22 5.22 0 012.69 6.52 5.221 5.221 0 01-3.704 3.29zm0 5.447v.449a1.189 1.189 0 01-1.221 1.215 1.216 1.216 0 01-1.215-1.215v-.45a1.232 1.232 0 011.684-1.131 1.198 1.198 0 01.663.662c.06.15.091.309.089.47z" fill="#FF5963"/></g><defs><clipPath id="prefix__clip0_3076_2525"><path fill="#fff" d="M0 0h275.359v279.657H0z"/></clipPath></defs></svg>