<svg width="144" height="179" viewBox="0 0 144 179" fill="none" xmlns="http://www.w3.org/2000/svg">
<g clip-path="url(#clip0_1406_7138)">
<path d="M76.8866 43.4126L73.1713 49.8349C72.7961 50.4836 72.1006 50.8856 71.3503 50.8856H45.9563C45.2059 50.8856 44.5104 51.2875 44.1352 51.9362L41.518 56.4583C41.1428 57.107 41.1428 57.9018 41.518 58.5504L44.1352 63.0726C44.5104 63.7212 45.2059 64.1232 45.9563 64.1232H71.3594C72.1098 64.1232 72.7961 64.5251 73.1713 65.1646L86.6507 88.4058C87.0259 89.0544 87.7214 89.4473 88.4626 89.4473H93.697C94.4474 89.4473 95.1428 89.0453 95.518 88.3967L98.1352 83.8745C98.5104 83.2259 98.5104 82.4219 98.1352 81.7824L84.6558 58.5504C84.2806 57.9018 84.2806 57.107 84.6558 56.4583L88.5999 49.634C89.4052 48.2362 91.4275 48.2362 92.2328 49.634L95.7377 55.6909C96.5429 57.0887 98.5653 57.0887 99.3706 55.6909L102.427 50.4105C102.802 49.7619 102.802 48.9671 102.427 48.3184L97.7783 40.279L96.5063 38.0773C96.1311 37.4287 96.1311 36.6339 96.5063 35.9853L97.6777 33.9571C98.4829 32.5594 97.4763 30.8145 95.8566 30.8145H84.1799H81.3523H57.5689C56.8185 30.8145 56.123 31.2164 55.7478 31.8651L52.6914 37.1455C51.8861 38.5432 52.8927 40.2882 54.5124 40.2882H75.0656C76.6853 40.2699 77.6919 42.0148 76.8866 43.4126Z" fill="#DC1010"/>
<path d="M119.896 17.7232C113.564 6.76041 101.85 0 89.1763 0H66.491H46.6059C44.4645 0 42.4788 1.14196 41.4081 2.9965L21.5596 37.3101L11.9236 53.9645C10.6608 56.1479 10.6608 58.8429 11.9236 61.0264L16.1331 68.3075C16.9383 69.7053 18.3934 70.6188 20.0039 70.7376L32.3578 71.6694C33.2454 71.7334 33.3644 72.985 32.5133 73.2225L20.8733 76.5022L20.9007 76.5479L1.22609 81.9106C-0.649862 82.4221 -0.274672 85.1811 1.66534 85.1811H17.2312H25.8972H42.0121H46.3679C47.6491 85.1811 48.4544 83.7925 47.8138 82.6871L43.1651 74.6477L37.0614 64.1234L34.2612 59.2815C33.6206 58.1852 33.6206 56.824 34.2612 55.7277L37.0614 50.8858L53.0756 23.1864C54.1463 21.3318 56.132 20.1899 58.2734 20.1899H118.432C119.704 20.1899 120.528 18.8195 119.896 17.7232Z" fill="#FF6347"/>
<path d="M121.745 40.6631C120.802 40.5808 120.702 39.247 121.617 39.0186L142.893 33.7017C144.576 33.2814 144.275 30.8057 142.536 30.8057H108.256C106.408 30.8057 105.264 32.7972 106.179 34.396L118.853 56.3125C119.283 57.0525 119.283 57.9661 118.853 58.706L101.796 88.2052L99.3523 92.435C98.5013 93.915 96.9181 94.8194 95.2069 94.8194H90.3111H54.8144H35.6065C33.758 94.8194 32.6141 96.811 33.5292 98.4097L40.7219 110.843C42.2135 113.42 44.968 115.009 47.9512 115.009H66.4819H86.2938H88.7554C101.686 115.009 113.628 108.121 120.088 96.948L121.324 94.8194L132.461 75.5705C138.226 65.6035 138.848 53.5627 134.318 43.148C133.934 42.2709 133.11 41.6589 132.149 41.5766L121.745 40.6631Z" fill="#FF6347"/>
</g>
<path d="M16.016 143.664C18.3627 143.664 20.4213 144.123 22.192 145.04C23.984 145.957 25.36 147.269 26.32 148.976C27.3013 150.661 27.792 152.624 27.792 154.864C27.792 157.104 27.3013 159.067 26.32 160.752C25.36 162.416 23.984 163.707 22.192 164.624C20.4213 165.541 18.3627 166 16.016 166H8.208V143.664H16.016ZM15.856 162.192C18.2027 162.192 20.016 161.552 21.296 160.272C22.576 158.992 23.216 157.189 23.216 154.864C23.216 152.539 22.576 150.725 21.296 149.424C20.016 148.101 18.2027 147.44 15.856 147.44H12.688V162.192H15.856ZM47.6255 156.752C47.6255 157.392 47.5828 157.968 47.4975 158.48H34.5375C34.6442 159.76 35.0922 160.763 35.8815 161.488C36.6708 162.213 37.6415 162.576 38.7935 162.576C40.4575 162.576 41.6415 161.861 42.3455 160.432H47.1775C46.6655 162.139 45.6842 163.547 44.2335 164.656C42.7828 165.744 41.0015 166.288 38.8895 166.288C37.1828 166.288 35.6468 165.915 34.2815 165.168C32.9375 164.4 31.8815 163.323 31.1135 161.936C30.3668 160.549 29.9935 158.949 29.9935 157.136C29.9935 155.301 30.3668 153.691 31.1135 152.304C31.8602 150.917 32.9055 149.851 34.2495 149.104C35.5935 148.357 37.1402 147.984 38.8895 147.984C40.5748 147.984 42.0788 148.347 43.4015 149.072C44.7455 149.797 45.7802 150.832 46.5055 152.176C47.2522 153.499 47.6255 155.024 47.6255 156.752ZM42.9855 155.472C42.9642 154.32 42.5482 153.403 41.7375 152.72C40.9268 152.016 39.9348 151.664 38.7615 151.664C37.6522 151.664 36.7135 152.005 35.9455 152.688C35.1988 153.349 34.7402 154.277 34.5695 155.472H42.9855ZM55.3755 142.32V166H50.8955V142.32H55.3755ZM62.0738 146.16C61.2844 146.16 60.6231 145.915 60.0898 145.424C59.5778 144.912 59.3218 144.283 59.3218 143.536C59.3218 142.789 59.5778 142.171 60.0898 141.68C60.6231 141.168 61.2844 140.912 62.0738 140.912C62.8631 140.912 63.5138 141.168 64.0258 141.68C64.5591 142.171 64.8258 142.789 64.8258 143.536C64.8258 144.283 64.5591 144.912 64.0258 145.424C63.5138 145.915 62.8631 146.16 62.0738 146.16ZM64.2818 148.272V166H59.8018V148.272H64.2818ZM76.1 161.872L80.58 148.272H85.348L78.788 166H73.348L66.82 148.272H71.62L76.1 161.872ZM104.344 156.752C104.344 157.392 104.302 157.968 104.216 158.48H91.2563C91.3629 159.76 91.8109 160.763 92.6003 161.488C93.3896 162.213 94.3603 162.576 95.5123 162.576C97.1763 162.576 98.3603 161.861 99.0643 160.432H103.896C103.384 162.139 102.403 163.547 100.952 164.656C99.5016 165.744 97.7203 166.288 95.6083 166.288C93.9016 166.288 92.3656 165.915 91.0003 165.168C89.6563 164.4 88.6003 163.323 87.8323 161.936C87.0856 160.549 86.7122 158.949 86.7122 157.136C86.7122 155.301 87.0856 153.691 87.8323 152.304C88.5789 150.917 89.6243 149.851 90.9683 149.104C92.3123 148.357 93.8589 147.984 95.6083 147.984C97.2936 147.984 98.7976 148.347 100.12 149.072C101.464 149.797 102.499 150.832 103.224 152.176C103.971 153.499 104.344 155.024 104.344 156.752ZM99.7043 155.472C99.6829 154.32 99.2669 153.403 98.4563 152.72C97.6456 152.016 96.6536 151.664 95.4803 151.664C94.3709 151.664 93.4323 152.005 92.6643 152.688C91.9176 153.349 91.4589 154.277 91.2883 155.472H99.7043ZM112.094 151.024C112.67 150.085 113.417 149.349 114.334 148.816C115.273 148.283 116.34 148.016 117.534 148.016V152.72H116.35C114.942 152.72 113.876 153.051 113.15 153.712C112.446 154.373 112.094 155.525 112.094 157.168V166H107.614V148.272H112.094V151.024ZM137.512 148.272L126.536 174.384H121.768L125.608 165.552L118.504 148.272H123.528L128.104 160.656L132.744 148.272H137.512Z" fill="#FF6347"/>
<defs>
<clipPath id="clip0_1406_7138">
<rect width="144" height="115" fill="white"/>
</clipPath>
</defs>
</svg>
